<svg version="1.2" xmlns="http://www.w3.org/2000/svg" viewBox="0 0 42 23" width="42" height="23">
	<title>paypal</title>
	<style>
		.s0 { fill: #ffffff } 
		.s1 { fill: #253b80 } 
		.s2 { fill: #179bd7 } 
	</style>
	<g id="paypal">
		<path id="Rectangle 686" fill-rule="evenodd" class="s0" d="m3 0h36c1.6 0 3 1.3 3 3v17c0 1.7-1.4 3-3 3h-36c-1.7 0-3-1.3-3-3v-17c0-1.7 1.3-3 3-3z"/>
		<path id="pay" class="s1" d="m10.7 8.6c-0.3-0.4-0.9-0.6-1.7-0.6h-2.5c-0.1 0-0.3 0.1-0.3 0.3l-1 6c0 0.2 0.1 0.3 0.2 0.3h1.2c0.1 0 0.3-0.2 0.3-0.3l0.3-1.6c0-0.2 0.1-0.3 0.3-0.3h0.8q2.4 0 2.8-2.3 0.1-0.9-0.4-1.5zm-1.5 1.6c-0.1 0.9-0.8 0.9-1.4 0.9h-0.4l0.3-1.6c0-0.1 0.1-0.2 0.2-0.2h0.2c0.4 0 0.8 0 1 0.3q0.2 0.2 0.1 0.6zm7 0h-1.1c-0.1 0-0.2 0.1-0.2 0.2l-0.1 0.3-0.1-0.1c-0.2-0.4-0.8-0.5-1.3-0.5-1.3 0-2.4 0.9-2.6 2.3-0.1 0.6 0 1.3 0.4 1.7 0.4 0.4 0.9 0.6 1.5 0.6 1 0 1.6-0.7 1.6-0.7l-0.1 0.3c0 0.2 0.1 0.3 0.2 0.3h1.1c0.2 0 0.3-0.2 0.3-0.3l0.6-3.9c0.1-0.1 0-0.2-0.2-0.2zm-1.6 2.2c-0.1 0.6-0.6 1.1-1.3 1.1q-0.5 0-0.8-0.3-0.2-0.3-0.2-0.8c0.1-0.7 0.7-1.1 1.3-1.1q0.6 0 0.8 0.3 0.3 0.3 0.2 0.8zm7.9-2.2h-1.2q-0.2 0-0.3 0.1l-1.6 2.3-0.7-2.2c0-0.1-0.2-0.2-0.3-0.2h-1.2c-0.1 0-0.2 0.1-0.2 0.3l1.3 3.6-1.2 1.7c-0.1 0.1 0 0.3 0.2 0.3h1.2q0.1 0 0.2-0.2l3.9-5.4c0.1-0.1 0-0.3-0.1-0.3z"/>
		<path id="pal" class="s2" d="m28.1 8.6c-0.3-0.4-0.9-0.6-1.8-0.6h-2.4c-0.2 0-0.3 0.1-0.3 0.3l-1 6c0 0.2 0.1 0.3 0.2 0.3h1.2c0.2 0 0.3-0.1 0.3-0.2l0.3-1.7c0-0.2 0.1-0.3 0.3-0.3h0.8q2.4 0 2.7-2.3 0.2-0.9-0.3-1.5zm-1.5 1.6c-0.1 0.9-0.8 0.9-1.4 0.9h-0.4l0.3-1.6c0-0.1 0.1-0.2 0.2-0.2h0.1c0.5 0 0.9 0 1.1 0.3q0.2 0.2 0.1 0.6zm7 0h-1.1c-0.1 0-0.2 0.1-0.2 0.2l-0.1 0.3-0.1-0.1c-0.2-0.4-0.8-0.5-1.3-0.5-1.3 0-2.4 0.9-2.6 2.3-0.2 0.6 0 1.3 0.4 1.7 0.3 0.4 0.8 0.6 1.5 0.6 1 0 1.6-0.7 1.6-0.7l-0.1 0.3c0 0.2 0.1 0.3 0.2 0.3h1.1c0.1 0 0.3-0.2 0.3-0.3l0.6-3.9c0.1-0.1 0-0.2-0.2-0.2zm-1.6 2.2c-0.1 0.6-0.6 1.1-1.3 1.1q-0.5 0-0.8-0.3-0.3-0.3-0.2-0.8c0.1-0.7 0.7-1.1 1.3-1.1q0.5 0 0.8 0.3 0.3 0.3 0.2 0.8zm4.3-4.4h-1.1c-0.1 0-0.2 0.1-0.2 0.2l-1 6.1c0 0.2 0.1 0.3 0.2 0.3h1c0.2 0 0.3-0.2 0.4-0.3l0.9-6.1c0.1-0.1 0-0.2-0.2-0.2z"/>
	</g>
</svg>