<svg
                version="1.2"
                xmlns="http://www.w3.org/2000/svg"
                viewBox="0 0 66 66"
                fill="#f8910e"
                height="24"
              >
                <g id="Layer 1">
                  <path
                    id="&lt;Compound Path&gt;"
                    fill-rule="evenodd"
                    d="m60.9 65.2c-1.1 0-2.2-0.5-3-1.3l-11-11c-1.1-1.1-1.5-2.7-1.1-4.2l-1.5-1.5c-4.8 4.2-11 6.5-17.5 6.5-7.1 0-13.9-2.8-18.9-7.9-5.1-5-7.9-11.8-7.9-18.9 0-7.2 2.8-14 7.9-19 5-5.1 11.8-7.9 18.9-7.9 7.2 0 14 2.8 19 7.9 10 9.9 10.5 25.8 1.4 36.4l1.5 1.5q0.6-0.2 1.2-0.2c1.1 0 2.2 0.5 3 1.3l11 11c0.8 0.8 1.2 1.9 1.2 3 0 1.1-0.4 2.2-1.2 3-0.8 0.8-1.9 1.3-3 1.3zm-34.1-59.6c-5.6 0-11 2.2-15 6.2-4 4-6.2 9.4-6.2 15.1 0 5.6 2.2 11 6.2 15 4 4 9.4 6.2 15 6.2 5.7 0 11.1-2.2 15.1-6.2 4-4 6.2-9.3 6.2-15 0-5.7-2.2-11.1-6.2-15.1-4-4-9.4-6.2-15.1-6.2z"
                  />
                  <path
                    id="&lt;Compound Path&gt;"
                    fill-rule="evenodd"
                    d="m46.5 44.4l2 2.1c1.4-0.6 2.9-0.3 4 0.8l11 11c1.5 1.4 1.5 3.8 0 5.2-1.4 1.5-3.8 1.5-5.2 0l-11-11c-1.1-1.1-1.4-2.6-0.9-4l-2-2c-10.4 9.2-26.2 8.8-36.1-1.1-10.3-10.2-10.3-26.9 0-37.1 10.2-10.3 26.9-10.3 37.1 0 9.9 9.9 10.3 25.8 1.1 36.1zm-4.2-2.1c8.5-8.5 8.5-22.4 0-30.9-8.5-8.5-22.4-8.5-30.9 0-8.5 8.5-8.5 22.4 0 30.9 8.5 8.5 22.4 8.5 30.9 0z"
                  />
                  <path
                    id="&lt;Compound Path&gt;"
                    d="m19.8 19.6c3.7-3.8 7.9-6.6 12.4-8.3-5.1-0.3-11.2 1.2-15.5 5.4-4.3 4.3-5.7 10.5-5.3 15.7 1.7-4.7 4.6-9 8.4-12.8z"
                  />
                </g>
              </svg>