<svg version="1.2" xmlns="http://www.w3.org/2000/svg" viewBox="0 0 29 33" height="20">
	<title>Forma 1</title>
	<style>
		.s0 { fill: #fff } 
	</style>
	<path id="Forma 1" class="s0" d="m26.5 9.4c-0.1-0.5-0.5-0.9-1-0.9h-5v-2c0-3.3-2.7-6-6-6-3.3 0-6 2.7-6 6v2h-5c-0.5 0-0.9 0.4-1 0.9l-2 22c0 0.3 0.1 0.6 0.3 0.8 0.2 0.2 0.4 0.3 0.7 0.3h26c0.3 0 0.5-0.1 0.7-0.3 0.2-0.2 0.3-0.5 0.3-0.8zm-16-2.9c0-2.2 1.8-4 4-4 2.2 0 4 1.8 4 4v2h-8zm-7.9 24l1.8-20h4.1v2.3c-0.6 0.3-1 1-1 1.7 0 1.1 0.9 2 2 2 1.1 0 2-0.9 2-2 0-0.7-0.4-1.4-1-1.7v-2.3h8v2.3c-0.6 0.3-1 1-1 1.7 0 1.1 0.9 2 2 2 1.1 0 2-0.9 2-2 0-0.7-0.4-1.4-1-1.7v-2.3h4.1l1.8 20z"/>
</svg>