<svg version="1.2" xmlns="http://www.w3.org/2000/svg" viewBox="0 0 86 83" width="42" height="41">
	<title>Vector Smart Object</title>
	<style>
		.s0 { fill: #333333 } 
		.s1 { fill: #f8910e } 
		.s2 { fill: #ffffff } 
	</style>
	<g id="Capa 1">
		<path id="&lt;Path&gt;" class="s0" d="m45.4 15.4c-14.2 0-25.6 11.4-25.6 25.6 0 14.2 11.4 25.6 25.6 25.6 14.2 0 25.6-11.4 25.6-25.6 0-14.1-11.5-25.6-25.6-25.6z"/>
		<path id="&lt;Compound Path&gt;" fill-rule="evenodd" class="s1" d="m37.7 1.2c44.4-4.9 61 51.4 23.4 71.3-35.9 17-69.1-27.1-41.5-56.2l3.3 3.2 3.4-17-17.2 3.3 3.3 3.3c-33.5 38.9 10.5 89.4 51.1 67.9 41.1-24 19.2-82.9-25.8-75.8zm32.8 64.8c0 0-0.1 0.1 0 0z"/>
		<path id="&lt;Compound Path&gt;" fill-rule="evenodd" class="s0" d="m45.4 13.8c15 0 27.2 12.2 27.2 27.2 0 15-12.2 27.1-27.2 27.1-15 0-27.2-12.1-27.2-27.1 0-15 12.2-27.2 27.2-27.2zm0 3.1c-13.3 0-24.1 10.8-24.1 24.1 0 13.3 10.8 24.1 24.1 24.1 13.3 0 24.1-10.8 24.1-24.1 0-13.3-10.8-24.1-24.1-24.1z"/>
		<g id="&lt;Group&gt;">
			<path id="&lt;Compound Path&gt;" class="s2" d="m36.8 49.9q-0.7 0-1.5-0.1-0.7-0.1-1.4-0.2-0.6-0.2-1.2-0.3-0.5-0.2-0.8-0.3l0.6-2.7q0.6 0.2 1.6 0.6 1 0.3 2.6 0.3 2 0 2.9-0.8 0.9-0.8 0.9-2.1 0-0.9-0.3-1.4-0.4-0.6-1-0.9-0.6-0.4-1.4-0.5-0.8-0.2-1.7-0.2h-1v-2.5h1.3q0.6 0 1.2-0.1 0.6-0.1 1.1-0.4 0.5-0.3 0.8-0.8 0.3-0.5 0.3-1.3 0-0.6-0.2-1.1-0.3-0.4-0.7-0.7-0.3-0.3-0.8-0.4-0.5-0.1-1.1-0.1-1.1 0-2 0.3-0.9 0.4-1.6 0.8l-1.2-2.3q0.4-0.2 0.9-0.5 0.5-0.3 1.2-0.5 0.6-0.2 1.3-0.4 0.7-0.1 1.6-0.1 1.5 0 2.5 0.4 1.1 0.3 1.8 1 0.7 0.6 1.1 1.5 0.3 0.9 0.3 2 0 1.2-0.6 2.2-0.7 1-1.8 1.5 1.4 0.5 2.3 1.6 0.9 1.2 0.9 3 0 1.1-0.4 2.2-0.4 1-1.3 1.7-0.8 0.8-2.1 1.2-1.3 0.4-3.1 0.4z"/>
			<path id="&lt;Compound Path&gt;" fill-rule="evenodd" class="s2" d="m58.9 40.6q0 4.5-1.6 6.9-1.7 2.4-4.6 2.4-2.9 0-4.6-2.4-1.6-2.4-1.6-6.9 0-2.3 0.4-4 0.4-1.8 1.2-3 0.8-1.2 2-1.8 1.1-0.6 2.6-0.6 2.9 0 4.6 2.4 1.6 2.4 1.6 7zm-3.2 0q0-1.4-0.2-2.7-0.1-1.2-0.5-2.1-0.3-0.9-0.9-1.4-0.6-0.5-1.4-0.5-0.9 0-1.4 0.5-0.6 0.5-1 1.4-0.3 0.9-0.5 2.1-0.1 1.3-0.1 2.7 0 1.3 0.1 2.6 0.2 1.2 0.5 2.1 0.4 0.9 1 1.4 0.5 0.5 1.4 0.5 0.8 0 1.4-0.5 0.6-0.5 0.9-1.4 0.4-0.9 0.5-2.1 0.2-1.3 0.2-2.6z"/>
		</g>
	</g>
</svg>