<svg version="1.2" xmlns="http://www.w3.org/2000/svg" viewBox="0 0 100 99" width="50" height="49">
	<title>Vector Smart Object</title>
	<style>
		.s0 { fill: #333333 } 
		.s1 { fill: #f8910e } 
	</style>
	<g id="Layer 1">
		<g id="&lt;Group&gt;">
			<g id="&lt;Group&gt;">
				<path id="&lt;Compound Path&gt;" fill-rule="evenodd" class="s0" d="m80.5 98.3c-1.1-0.7-2.4-1.1-3.3-2.2-1.5-2.2-3.1-4.4-4.1-7-0.5-1.5-0.5-2.9 0.6-4.1 1-1.2 2.4-1.4 3.9-1.1 1.4 0.2 2.8 0.6 4.2 0.8 0.4 0.1 0.9 0.1 1.3 0 2.2-0.5 4.1 0.9 4.6 3.4 0.2 1.2 0.2 2.4-0.3 3.5-0.1 0.2-0.1 0.5-0.1 0.8 0.1 3.1-1.5 5.1-4.5 5.8-0.1 0-0.1 0.1-0.1 0.1q-1.1 0-2.2 0zm-3.8-10.6c0.9 2.3 2.3 4.3 3.7 6.1 0.5 0.6 1.3 0.9 2 0.5 0.8-0.4 1.1-1 1-1.8-0.1-0.7 0-1.4 0.2-2 0.7-1.7 0.5-1.9-1.2-1.9-1.9 0.1-3.6-0.6-5.7-0.9z"/>
			</g>
		</g>
		<g id="&lt;Group&gt;">
			<path id="&lt;Path&gt;" class="s1" d="m91.7 63.1c-1.6-0.3-2.1-0.1-2.9 1.3q-0.3 0.6-0.5 1.1c-0.9-0.1-1.5 0.3-2 0.9-0.2 0.4-0.4 0.8-0.7 1.2-0.7 1.1-1.5 1.1-2.3 0q-0.2-0.3-0.3-0.7c-0.5-1-1.3-1.6-2.4-1.8-3.2-0.5-5.4-2.1-6.2-5.4-0.7-2.6-1.1-2.8-3.8-2.3q-0.1 0-0.2 0.1c-0.6 0-1.2-0.2-1.2-0.9-0.1-1.1-0.7-1.5-1.6-1.7-0.3-0.1-0.7-0.2-1-0.4-1.9-0.8-3.2-2.5-4.6-4-2.9-3.2-6.4-5-10.8-5-3.1 0-5.9 1-8.5 2.6-2.5 1.5-5.1 3-8.2 3.2-3.2 0.2-6.3 0.7-9.2 2.2-3.1 1.7-5.9 0.8-8.7-0.6-0.9-0.5-1.2-1.4-0.8-2.3q0.4-0.9 1-1.6c0.7-1.1 0.9-2.2 0.3-3.4-0.4-0.8-0.7-1.7-0.8-2.7 0-0.5-0.1-1-0.1-1.4 0.3-3.4-0.7-6.3-2.6-9-0.8-1.1-1.5-2.4-1.5-3.9 2.6-0.9 5.1-1.8 7.7-2.7 2.7-0.9 4.6-2.6 4.9-5.6 0-0.6 0.2-1.1 0.7-1.6 2.3-2.1 4.6-4.3 7.2-6.1 1-0.7 2-0.9 3.1-0.4 1 0.5 2.1 0.9 3.3 0.8 2-0.2 3.2-1.5 4.4-2.8 0.6-0.7 1.1-1.4 1.7-2.1q1.6-2.1 4.4-1.9c2 0.2 4 0.3 6.1 0.5 1.2 0.1 1.2 0.2 0.6 1.3q-0.5 1.1-1 2.1c-0.7 1.8-0.4 3.4 0.9 4.8 2.3 2.3 5 3.9 7.9 5.1 3 1.2 5.6-0.4 6.4-3.5 0.6-2.2 0.4-4.4 0.3-6.6 0-1.5-0.1-2.9 0.4-4.3 0.4 0 0.4 0.4 0.4 0.6 0.3 0.7 0.5 1.5 0.8 2.2 0.5 1.5 1.3 2.7 2.7 3.4 1.1 0.6 1.5 1.6 1.8 2.7 0.3 1.4 0.6 2.8 1 4.1 0.8 2.4 2.4 4.3 4.5 5.7 1.7 1.2 3 2.7 3.6 4.7 0.4 1.3 1.2 2.3 2.1 3.3 1.1 1.2 2.1 2.4 3.2 3.6 1 1.2 2.2 2 3.7 2.2 0.6 0.1 0.8 0.3 0.6 0.9-0.4 1.4-0.2 2.8-0.1 4.2 0.4 3 0.6 5.9 0.3 8.8-0.1 1 0.3 1.7 1.2 2.2q-0.8 1.2-1.5 2.3c-1.6-0.4-2.7 0.2-2.9 1.6-0.2 0.8 0.3 1.4 0.9 2q-0.9 1.5-1.7 3z"/>
		</g>
		<g id="&lt;Group&gt;">
			<path id="&lt;Path&gt;" class="s0" d="m93.4 60.1c-0.6-0.6-1.1-1.2-0.9-2 0.2-1.4 1.3-2 2.9-1.6q1.4 1.5 0.6 2.8c-0.5 0.9-1.4 1.1-2.6 0.8z"/>
		</g>
		<g id="&lt;Group&gt;">
			<path id="&lt;Path&gt;" class="s0" d="m99.2 40.1c0.1-0.3 0.2-0.6 0.2-0.9 0.5-2.6-0.6-4.2-3.1-4.7-1.1-0.2-1.9-0.7-2.6-1.6q-1-1.3-2.1-2.4-1.8-1.8-2.6-4.2c-0.6-1.8-1.8-3.2-3.4-4.3-0.9-0.7-1.9-1.4-2.7-2.3-1.3-1.3-1.6-3.1-2-4.8-0.5-2.1-0.9-4.3-2.8-5.5-1.7-1.1-2.4-2.6-2.9-4.3-0.2-0.7-0.5-1.4-0.9-2.1-0.6-1.1-1.5-1.8-2.7-2.2q-0.7 0-1.4 0c-3.4 2-3.4 5.4-3.4 8.8 0 1.9 0.3 3.8-0.1 5.7-0.2 1.2-0.6 1.4-1.7 0.9-2-0.9-3.9-2.2-5.6-3.5-0.6-0.5-0.7-1-0.3-1.7 0.5-1.1 1.2-2.1 1.4-3.3 0.4-1.8-0.3-3.3-2.1-4.2q-1.5-0.7-3.2-0.8c-2.3-0.2-4.6-0.4-6.9-0.4-2.5 0.1-4.4 1.3-6 3.1-0.8 0.9-1.4 1.8-2.2 2.7-1 1.1-1.2 1.2-2.6 0.6-1.5-0.6-3-0.9-4.7-0.5-1.3 0.4-2.5 1.1-3.6 2-2.2 1.8-4.3 3.7-6.4 5.6-1.1 1-1.8 2.2-1.9 3.6-0.1 1.6-1 2.4-2.4 2.9-3.2 1.1-6.5 2.1-9.6 3.4-3.8 1.6-6.4 4.3-7.5 8.4-0.3 1.2-0.5 2.5-1.1 3.6q0 1.5 0 3c0.6 1.8 1.5 3.5 2.6 5.1 1.1 1.5 1.5 3.1 1.5 5 0 1.6-0.2 3.3 0.5 4.7 0.8 1.8 0.5 3.3-0.5 4.9-1.2 2-0.6 4 1.4 5 3.4 1.8 6.8 2.7 10.5 0.8 2.2-1.1 4.5-1.9 7.1-1.9 2.8-0.1 5.4-0.9 7.9-2.2 1.4-0.8 2.7-1.7 4.2-2.3 4.6-2.1 9-2.1 13.2 1 1.4 1 2.5 2.4 3.6 3.6 1.3 1.4 2.8 2.5 4.6 3.2 0.3 0.1 0.4 0.2 0.6 0.4 0.7 1.9 1.9 2.6 3.9 2.1 0.9-0.2 1.1 0.1 1.3 0.8 0.4 1.4 0.7 2.8 1.7 3.9q2.3 2.4 5.5 3c0.9 0.2 1.4 0.6 1.8 1.4 1.5 2.7 4.3 2.7 5.8 0.1 0.6-0.9 1.1-1.1 2.1-0.8 1.8 0.4 3.5 0.1 4.7-1.4 0.7-0.9 1.5-1.2 2.5-1.3 1.9-0.3 3.3-1.2 4.1-2.9 0.5-1.1 0.7-2.3 0.6-3.4 0-1.2 0.2-2.3 0.8-3.4 0.8-1.3 0.6-2-0.6-3-1.6-0.3-2.1-0.1-2.9 1.3q-0.3 0.6-0.5 1.1 0 0 0 0c-0.9-0.1-1.5 0.3-2 0.9-0.2 0.4-0.4 0.8-0.7 1.2-0.7 1.1-1.5 1.1-2.3 0q-0.2-0.3-0.3-0.7c-0.5-1-1.3-1.6-2.4-1.8-3.2-0.5-5.4-2.1-6.2-5.4-0.7-2.6-1.1-2.8-3.8-2.3q-0.1 0-0.2 0.1c-0.6 0-1.2-0.2-1.2-0.9-0.1-1.1-0.7-1.5-1.6-1.7-0.3-0.1-0.7-0.2-1-0.4-1.9-0.8-3.2-2.5-4.6-4-2.9-3.2-6.4-5-10.8-5-3.1 0-5.9 1-8.5 2.6-2.5 1.5-5.1 3-8.2 3.2-3.2 0.2-6.3 0.7-9.2 2.2-3.1 1.7-5.9 0.8-8.7-0.6-0.9-0.5-1.2-1.4-0.8-2.3q0.4-0.9 1-1.6c0.7-1.1 0.9-2.2 0.3-3.4-0.4-0.8-0.7-1.7-0.8-2.7 0-0.5-0.1-1-0.1-1.4 0.3-3.4-0.7-6.3-2.6-9-0.8-1.1-1.5-2.4-1.5-3.9 2.6-0.9 5.1-1.8 7.7-2.7 2.7-0.9 4.6-2.6 4.9-5.6 0-0.6 0.2-1.1 0.7-1.6 2.3-2.1 4.6-4.3 7.2-6.1 1-0.7 2-0.9 3.1-0.4 1 0.5 2.1 0.9 3.3 0.8 2-0.2 3.2-1.5 4.4-2.8 0.6-0.7 1.1-1.4 1.7-2.1q1.6-2.1 4.4-1.9c2 0.2 4 0.3 6.1 0.5 1.2 0.1 1.2 0.2 0.6 1.3q-0.5 1.1-1 2.1c-0.7 1.8-0.4 3.4 0.9 4.8 2.3 2.3 5 3.9 7.9 5.1 3 1.2 5.6-0.4 6.4-3.5 0.6-2.2 0.4-4.4 0.3-6.6 0-1.5-0.1-2.9 0.4-4.3 0.4 0 0.4 0.4 0.4 0.6 0.3 0.7 0.5 1.5 0.8 2.2 0.5 1.5 1.3 2.7 2.7 3.4 1.1 0.6 1.5 1.6 1.8 2.7 0.3 1.4 0.6 2.8 1 4.1 0.8 2.4 2.4 4.3 4.5 5.7 1.7 1.2 3 2.7 3.6 4.7 0.4 1.3 1.2 2.3 2.1 3.3 1.1 1.2 2.1 2.4 3.2 3.6 1 1.2 2.2 2 3.7 2.2 0.6 0.1 0.8 0.3 0.6 0.9-0.4 1.4-0.2 2.8-0.1 4.2 0.4 3 0.6 5.9 0.3 8.8-0.1 1 0.3 1.7 1.2 2.2 1.4 0.2 2.2-0.2 2.6-1.4 0.1-0.2-0.1-0.6 0.2-0.7q0-3.2 0-6.4c-0.2-1.8-0.7-3.7-0.5-5.6z"/>
		</g>
		<g id="&lt;Group&gt;">
			<path id="&lt;Path&gt;" class="s1" d="m76.7 87.7c2.1 0.3 3.8 1 5.7 0.9 1.7 0 1.9 0.2 1.2 1.9-0.2 0.6-0.3 1.3-0.2 2 0.1 0.8-0.2 1.4-1 1.8-0.7 0.4-1.5 0.1-2-0.5-1.4-1.8-2.8-3.8-3.7-6.1z"/>
		</g>
	</g>
</svg>